<svg width="282" height="315" viewBox="0 0 282 315" fill="none" xmlns="http://www.w3.org/2000/svg">
<g style="mix-blend-mode:soft-light">
<g opacity="0.3">
<path d="M183.347 251.255C187.173 246.25 189.641 240.555 192.044 234.822C196.624 223.89 199.477 212.572 199.226 200.661C199.033 191.223 194.762 184.608 186.781 182.095C183.527 181.071 180.081 181.496 176.86 180.446C175.598 180.034 173.845 179.957 173.942 178.134C174.039 176.291 175.385 175.209 177.208 175.383C184.623 176.091 192.082 175.744 199.51 176.478C203.832 176.903 208.219 177.058 212.567 177.18C216.22 177.283 219.724 177.94 223.19 178.791C227.203 179.776 228.543 182.276 227.95 187.79C227.222 194.586 226.759 201.421 224.832 208.056C222.185 217.184 218.603 225.893 213.933 234.165C208.837 243.203 203.458 252.067 197.815 260.763C197.126 261.826 197.087 262.451 198.369 263.481C210.776 273.524 223.776 282.768 237.388 291.059C248.01 297.527 259.444 302.351 271.761 304.709C273.932 305.121 276.161 304.741 278.409 305.27C280.091 305.663 281.469 305.998 281.334 307.775C281.173 309.914 278.944 310.481 277.501 310.397C261.132 309.425 244.744 310.359 228.375 309.908C210.918 309.418 195.045 304.181 181.041 293.578C178.187 291.42 175.063 289.59 172.331 287.29C170.277 285.558 168.892 286.066 167.069 287.522C158.391 294.447 149.579 301.16 139.291 305.65C129.558 309.895 119.541 312.819 108.925 313.869C97.5805 314.99 86.2106 314.823 74.9181 314.25C65.1136 313.747 55.4831 311.286 46.2262 307.634C35.172 303.279 25.5801 296.811 17.7597 287.948C9.80403 278.929 4.07723 268.532 1.45541 256.73C-1.61735 242.913 0.34097 229.591 5.77144 216.52C11.189 203.489 19.4281 192.589 29.4967 182.965C36.0932 176.658 43.7138 171.602 51.2701 166.532C53.0223 165.359 52.7582 164.631 52.0045 163.337C49.0284 158.209 45.7623 153.255 43.2243 147.863C39.488 139.921 37.5619 131.63 37.2913 122.85C36.9886 113.019 38.2254 103.582 43.147 94.8986C46.4065 89.1396 50.3554 83.9668 55.3349 79.5026C62.2921 73.2669 70.0481 68.4677 78.8412 65.4014C86.3073 62.7989 93.8829 60.7053 101.832 59.9903C106.38 59.578 110.902 58.747 115.489 58.8565C128.508 59.1657 141.295 61.1756 153.753 64.9054C162.836 67.6303 161.96 70.046 161.471 77.9952C161.361 79.7538 161.039 81.564 161.033 83.3613C160.975 94.8277 159.699 106.178 157.895 117.49C157.522 119.822 155.808 120.196 154.327 120.382C152.645 120.595 153.444 118.824 153.277 117.928C152.239 112.356 152.066 106.681 150.429 101.166C147.479 91.2332 141.456 83.8186 132.502 79.0581C119.934 72.3779 106.612 70.3101 92.9939 75.4893C81.3213 79.9213 73.9454 88.5341 71.5748 100.877C68.2315 118.282 74.2159 133.485 83.5566 147.677C89.6892 156.998 97.1167 165.308 104.402 173.74C118.001 189.465 132.669 204.146 147.472 218.698C153.785 224.901 160.543 230.654 167.107 236.6C172.48 241.463 177.871 246.307 183.353 251.248L183.347 251.255ZM156.942 275.354C153.831 272.423 150.854 269.524 147.769 266.735C141.598 261.149 135.291 255.719 129.203 250.05C123.605 244.839 117.737 239.949 111.289 235.891C98.0894 227.588 83.8143 223.71 68.0124 225.436C60.2114 226.286 52.5392 227.426 44.9893 229.488C39.1466 231.085 38.0966 233.082 39.6813 239.221C39.7843 239.627 39.9003 240.033 39.9583 240.445C41.7555 253.606 47.3019 264.957 56.0822 274.896C66.956 287.213 80.8253 293.449 96.8397 295.014C105.214 295.832 113.576 294.699 121.834 292.798C134.866 289.803 146.255 283.619 156.936 275.341L156.942 275.354Z" fill="white"/>
<path d="M159.521 47.0623C157.466 47.4424 156.306 46.6565 155.333 45.9543C147.603 40.35 138.733 38.2048 129.489 36.7876C122.635 35.7376 115.8 34.7005 108.881 35.0934C96.9446 35.7762 85.0788 37.1033 73.9988 42.0764C70.7521 43.5322 68.2011 46.3602 64.4713 46.9399C63.5179 47.0881 62.4293 47.6228 61.8431 46.6823C61.1667 45.5936 62.4228 45.001 63.0284 44.3761C70.1144 37.0968 77.6255 30.2685 85.1625 23.4659C93.3823 16.0385 101.731 8.77852 110.241 1.6925C112.779 -0.420418 114.099 -0.291581 116.367 1.96306C122.351 7.90887 128.645 13.5455 134.81 19.3045C143.622 27.5436 152.435 35.7891 161.247 44.0411C161.782 44.5436 162.658 45.1298 162.2 45.877C161.498 47.0237 159.991 46.7274 159.533 47.0623H159.521Z" fill="white"/>
<path d="M112.457 243.673C119.756 253.69 117.23 267.849 107.394 275.212C100.855 280.108 93.5244 282.653 85.5172 282.144C73.7029 281.397 60.1171 273.228 57.4373 259.069C56.4645 253.929 57.8624 248.962 60.2717 244.343C60.5551 243.796 60.9867 242.842 61.9337 243.113C62.7324 243.338 62.3524 244.189 62.5456 244.749C65.7859 254.244 71.4998 261.44 81.8454 263.244C94.8514 265.511 107.033 260.048 111.452 246.34C111.735 245.451 112.399 244.717 112.451 243.673H112.457Z" fill="white"/>
</g>
</g>
</svg>
